<mxfile host="app.diagrams.net" modified="2023-10-04T01:29:10.848Z" agent="Mozilla/5.0 (Windows NT 10.0; Win64; x64) AppleWebKit/537.36 (KHTML, like Gecko) Chrome/117.0.0.0 Safari/537.36 Edg/117.0.2045.47" etag="S2R8u2cRCgczV4W8NmiC" version="22.0.2" type="github">
  <diagram name="Página-1" id="o91XLXOkaBWR3F7ZfSLU">
    <mxGraphModel dx="1272" dy="931" grid="0" gridSize="10" guides="1" tooltips="1" connect="1" arrows="1" fold="1" page="0" pageScale="1" pageWidth="827" pageHeight="1169" math="0" shadow="0">
      <root>
        <mxCell id="0" />
        <mxCell id="1" parent="0" />
        <mxCell id="6Gd0N6yodVV3u2IcNdP2-18" value="" style="ellipse;whiteSpace=wrap;html=1;aspect=fixed;fontSize=16;" vertex="1" parent="1">
          <mxGeometry x="-213" y="-228" width="812" height="812" as="geometry" />
        </mxCell>
        <mxCell id="6Gd0N6yodVV3u2IcNdP2-1" value="Tasa de Eliminacion del sw" style="rounded=1;whiteSpace=wrap;html=1;fontSize=16;" vertex="1" parent="1">
          <mxGeometry x="448" y="155" width="139" height="73" as="geometry" />
        </mxCell>
        <mxCell id="6Gd0N6yodVV3u2IcNdP2-12" style="edgeStyle=none;curved=1;rounded=0;orthogonalLoop=1;jettySize=auto;html=1;exitX=0;exitY=0;exitDx=0;exitDy=0;fontSize=12;startSize=8;endSize=8;" edge="1" parent="1" source="6Gd0N6yodVV3u2IcNdP2-2" target="6Gd0N6yodVV3u2IcNdP2-6">
          <mxGeometry relative="1" as="geometry">
            <Array as="points">
              <mxPoint x="292" y="115" />
            </Array>
          </mxGeometry>
        </mxCell>
        <mxCell id="6Gd0N6yodVV3u2IcNdP2-2" value="Disponibilidad del cluster" style="rounded=1;whiteSpace=wrap;html=1;fontSize=16;" vertex="1" parent="1">
          <mxGeometry x="309" y="158" width="117" height="68" as="geometry" />
        </mxCell>
        <mxCell id="6Gd0N6yodVV3u2IcNdP2-4" value="Uso actual del Cluster" style="rounded=1;whiteSpace=wrap;html=1;fontSize=16;" vertex="1" parent="1">
          <mxGeometry x="-14" y="157" width="134" height="69" as="geometry" />
        </mxCell>
        <mxCell id="6Gd0N6yodVV3u2IcNdP2-5" value="Tasa de Eliminacion" style="rounded=1;whiteSpace=wrap;html=1;fontSize=16;" vertex="1" parent="1">
          <mxGeometry x="-174" y="155" width="139" height="73" as="geometry" />
        </mxCell>
        <mxCell id="6Gd0N6yodVV3u2IcNdP2-9" style="edgeStyle=none;curved=1;rounded=0;orthogonalLoop=1;jettySize=auto;html=1;entryX=1;entryY=0;entryDx=0;entryDy=0;fontSize=12;startSize=8;endSize=8;" edge="1" parent="1" source="6Gd0N6yodVV3u2IcNdP2-6" target="6Gd0N6yodVV3u2IcNdP2-4">
          <mxGeometry relative="1" as="geometry">
            <Array as="points">
              <mxPoint x="168" y="98" />
            </Array>
          </mxGeometry>
        </mxCell>
        <mxCell id="6Gd0N6yodVV3u2IcNdP2-11" style="edgeStyle=none;curved=1;rounded=0;orthogonalLoop=1;jettySize=auto;html=1;entryX=0;entryY=1;entryDx=0;entryDy=0;fontSize=12;startSize=8;endSize=8;" edge="1" parent="1" source="6Gd0N6yodVV3u2IcNdP2-6" target="6Gd0N6yodVV3u2IcNdP2-2">
          <mxGeometry relative="1" as="geometry">
            <Array as="points">
              <mxPoint x="275" y="276" />
            </Array>
          </mxGeometry>
        </mxCell>
        <mxCell id="6Gd0N6yodVV3u2IcNdP2-6" value="Nivel de uso del Cluster" style="rounded=1;whiteSpace=wrap;html=1;fontSize=16;" vertex="1" parent="1">
          <mxGeometry x="152" y="158" width="117" height="68" as="geometry" />
        </mxCell>
        <mxCell id="6Gd0N6yodVV3u2IcNdP2-7" value="Tasa de almacenamiento" style="rounded=1;whiteSpace=wrap;html=1;fontSize=16;" vertex="1" parent="1">
          <mxGeometry x="141" y="372" width="139" height="73" as="geometry" />
        </mxCell>
        <mxCell id="6Gd0N6yodVV3u2IcNdP2-15" style="edgeStyle=none;curved=1;rounded=0;orthogonalLoop=1;jettySize=auto;html=1;entryX=0.5;entryY=0;entryDx=0;entryDy=0;fontSize=12;startSize=8;endSize=8;" edge="1" parent="1" source="6Gd0N6yodVV3u2IcNdP2-8" target="6Gd0N6yodVV3u2IcNdP2-1">
          <mxGeometry relative="1" as="geometry">
            <Array as="points">
              <mxPoint x="442" y="-63" />
            </Array>
          </mxGeometry>
        </mxCell>
        <mxCell id="6Gd0N6yodVV3u2IcNdP2-8" value="Tasa de almacenamiento de sw" style="rounded=1;whiteSpace=wrap;html=1;fontSize=16;" vertex="1" parent="1">
          <mxGeometry x="114" y="-21" width="139" height="73" as="geometry" />
        </mxCell>
        <mxCell id="6Gd0N6yodVV3u2IcNdP2-10" style="edgeStyle=none;curved=1;rounded=0;orthogonalLoop=1;jettySize=auto;html=1;entryX=0.06;entryY=1.059;entryDx=0;entryDy=0;entryPerimeter=0;fontSize=12;startSize=8;endSize=8;" edge="1" parent="1" source="6Gd0N6yodVV3u2IcNdP2-4" target="6Gd0N6yodVV3u2IcNdP2-6">
          <mxGeometry relative="1" as="geometry">
            <Array as="points">
              <mxPoint x="132" y="258" />
            </Array>
          </mxGeometry>
        </mxCell>
        <mxCell id="6Gd0N6yodVV3u2IcNdP2-13" value="" style="endArrow=classic;html=1;rounded=0;fontSize=12;startSize=8;endSize=8;curved=1;entryX=0;entryY=0.5;entryDx=0;entryDy=0;exitX=0.5;exitY=0;exitDx=0;exitDy=0;" edge="1" parent="1" source="6Gd0N6yodVV3u2IcNdP2-5" target="6Gd0N6yodVV3u2IcNdP2-8">
          <mxGeometry width="50" height="50" relative="1" as="geometry">
            <mxPoint x="-77" y="127" as="sourcePoint" />
            <mxPoint x="-27" y="77" as="targetPoint" />
            <Array as="points">
              <mxPoint x="-126" y="4" />
            </Array>
          </mxGeometry>
        </mxCell>
        <mxCell id="6Gd0N6yodVV3u2IcNdP2-14" style="edgeStyle=none;curved=1;rounded=0;orthogonalLoop=1;jettySize=auto;html=1;exitX=0;exitY=0.5;exitDx=0;exitDy=0;entryX=0.453;entryY=0.973;entryDx=0;entryDy=0;entryPerimeter=0;fontSize=12;startSize=8;endSize=8;" edge="1" parent="1" source="6Gd0N6yodVV3u2IcNdP2-7" target="6Gd0N6yodVV3u2IcNdP2-5">
          <mxGeometry relative="1" as="geometry">
            <Array as="points">
              <mxPoint x="-138" y="457" />
            </Array>
          </mxGeometry>
        </mxCell>
        <mxCell id="6Gd0N6yodVV3u2IcNdP2-16" style="edgeStyle=none;curved=1;rounded=0;orthogonalLoop=1;jettySize=auto;html=1;entryX=0.993;entryY=0.63;entryDx=0;entryDy=0;entryPerimeter=0;fontSize=12;startSize=8;endSize=8;" edge="1" parent="1" source="6Gd0N6yodVV3u2IcNdP2-1" target="6Gd0N6yodVV3u2IcNdP2-7">
          <mxGeometry relative="1" as="geometry">
            <Array as="points">
              <mxPoint x="489" y="418" />
            </Array>
          </mxGeometry>
        </mxCell>
        <mxCell id="6Gd0N6yodVV3u2IcNdP2-19" value="&lt;h1&gt;Nivel de uso del clúster&lt;/h1&gt;" style="text;html=1;strokeColor=none;fillColor=none;spacing=5;spacingTop=-20;whiteSpace=wrap;overflow=hidden;rounded=0;fontSize=16;" vertex="1" parent="1">
          <mxGeometry x="7" y="-188" width="382" height="120" as="geometry" />
        </mxCell>
      </root>
    </mxGraphModel>
  </diagram>
</mxfile>
